<mxfile host="app.diagrams.net" modified="2024-06-10T13:57:16.164Z" agent="Mozilla/5.0 (Windows NT 10.0; Win64; x64) AppleWebKit/537.36 (KHTML, like Gecko) Chrome/125.0.0.0 Safari/537.36" etag="P2lQ0JdBi8FA7bRtQavo" version="24.5.2" type="github">
  <diagram name="Page-1" id="2a216829-ef6e-dabb-86c1-c78162f3ba2b">
    <mxGraphModel dx="2840" dy="79" grid="0" gridSize="10" guides="1" tooltips="1" connect="1" arrows="1" fold="1" page="0" pageScale="1" pageWidth="850" pageHeight="1100" background="none" math="0" shadow="0">
      <root>
        <mxCell id="0" />
        <mxCell id="1" parent="0" />
        <mxCell id="yIEuN8YyVFJwC3LC824W-1" value="Análise de Credito" style="swimlane;horizontal=0;whiteSpace=wrap;html=1;shadow=0;" vertex="1" parent="1">
          <mxGeometry x="-140" y="1530" width="1811" height="820" as="geometry" />
        </mxCell>
        <mxCell id="yIEuN8YyVFJwC3LC824W-2" style="edgeStyle=none;curved=1;rounded=0;orthogonalLoop=1;jettySize=auto;html=1;fontSize=12;startSize=8;endSize=8;shadow=1;" edge="1" parent="yIEuN8YyVFJwC3LC824W-1" source="yIEuN8YyVFJwC3LC824W-3" target="yIEuN8YyVFJwC3LC824W-5">
          <mxGeometry relative="1" as="geometry" />
        </mxCell>
        <mxCell id="yIEuN8YyVFJwC3LC824W-3" value="" style="ellipse;whiteSpace=wrap;html=1;aspect=fixed;fillColor=#d5e8d4;strokeColor=#82b366;shadow=1;" vertex="1" parent="yIEuN8YyVFJwC3LC824W-1">
          <mxGeometry x="256" y="534.5" width="30" height="30" as="geometry" />
        </mxCell>
        <mxCell id="yIEuN8YyVFJwC3LC824W-4" value="" style="group;shadow=1;rounded=1;" vertex="1" connectable="0" parent="yIEuN8YyVFJwC3LC824W-1">
          <mxGeometry x="333" y="509" width="522" height="86.17999999999995" as="geometry" />
        </mxCell>
        <mxCell id="yIEuN8YyVFJwC3LC824W-5" value="&lt;div&gt;&amp;nbsp;Sistema de Crédito&amp;nbsp;&amp;nbsp;&lt;span style=&quot;background-color: initial;&quot;&gt;&amp;nbsp;&lt;/span&gt;&lt;/div&gt;" style="rounded=1;whiteSpace=wrap;html=1;shadow=1;glass=0;" vertex="1" parent="yIEuN8YyVFJwC3LC824W-4">
          <mxGeometry width="172" height="79" as="geometry" />
        </mxCell>
        <mxCell id="yIEuN8YyVFJwC3LC824W-6" value="" style="verticalLabelPosition=bottom;aspect=fixed;html=1;shape=mxgraph.salesforce.learning;shadow=1;" vertex="1" parent="yIEuN8YyVFJwC3LC824W-4">
          <mxGeometry x="150" y="42.82999999999993" width="43.35" height="43.35" as="geometry" />
        </mxCell>
        <mxCell id="yIEuN8YyVFJwC3LC824W-13" value="Carrega uma lista de propostas para analise de crédito:&lt;div&gt;&lt;ol&gt;&lt;li&gt;&lt;span style=&quot;background-color: initial; text-align: center; text-wrap: wrap;&quot;&gt;Acessa a conta&amp;nbsp;&lt;/span&gt;&lt;/li&gt;&lt;li&gt;&lt;span style=&quot;background-color: initial; text-align: center; text-wrap: wrap;&quot;&gt;Seleciona o CNPJ a ser consultado no Serasa&amp;nbsp;&lt;/span&gt;&lt;span style=&quot;background-color: initial; text-align: center; text-wrap: wrap;&quot;&gt;&amp;nbsp;&lt;/span&gt;&lt;/li&gt;&lt;/ol&gt;&lt;/div&gt;" style="html=1;shape=mxgraph.flowchart.annotation_2;align=left;labelPosition=right;shadow=1;" vertex="1" parent="yIEuN8YyVFJwC3LC824W-1">
          <mxGeometry x="333" y="626" width="50" height="100" as="geometry" />
        </mxCell>
        <mxCell id="yIEuN8YyVFJwC3LC824W-14" value="" style="edgeStyle=elbowEdgeStyle;fontSize=12;html=1;endFill=0;startFill=0;endSize=6;startSize=6;dashed=1;dashPattern=1 4;endArrow=none;startArrow=none;rounded=0;curved=1;entryX=0;entryY=0.5;entryDx=0;entryDy=0;entryPerimeter=0;shadow=1;" edge="1" parent="yIEuN8YyVFJwC3LC824W-1" target="yIEuN8YyVFJwC3LC824W-13">
          <mxGeometry width="160" relative="1" as="geometry">
            <mxPoint x="333" y="589" as="sourcePoint" />
            <mxPoint x="414" y="684" as="targetPoint" />
            <Array as="points" />
          </mxGeometry>
        </mxCell>
        <mxCell id="yIEuN8YyVFJwC3LC824W-15" value="" style="edgeStyle=none;curved=1;rounded=0;orthogonalLoop=1;jettySize=auto;html=1;fontSize=12;startSize=8;endSize=8;exitX=0.5;exitY=0;exitDx=0;exitDy=0;exitPerimeter=0;shadow=1;" edge="1" parent="yIEuN8YyVFJwC3LC824W-1" source="yIEuN8YyVFJwC3LC824W-16" target="yIEuN8YyVFJwC3LC824W-19">
          <mxGeometry relative="1" as="geometry">
            <mxPoint x="832.6991150442473" y="-22.999999999999545" as="sourcePoint" />
          </mxGeometry>
        </mxCell>
        <mxCell id="yIEuN8YyVFJwC3LC824W-16" value="&lt;div&gt;Consulta CNPJ&lt;/div&gt;" style="points=[[0.25,0,0],[0.5,0,0],[0.75,0,0],[1,0.25,0],[1,0.5,0],[1,0.75,0],[0.75,1,0],[0.5,1,0],[0.25,1,0],[0,0.75,0],[0,0.5,0],[0,0.25,0]];shape=mxgraph.bpmn.task;whiteSpace=wrap;rectStyle=rounded;size=10;html=1;container=1;expand=0;collapsible=0;taskMarker=manual;shadow=1;" vertex="1" parent="yIEuN8YyVFJwC3LC824W-1">
          <mxGeometry x="625" y="509" width="172" height="79" as="geometry" />
        </mxCell>
        <mxCell id="yIEuN8YyVFJwC3LC824W-17" value="" style="edgeStyle=none;curved=1;rounded=0;orthogonalLoop=1;jettySize=auto;html=1;fontSize=12;startSize=8;endSize=8;shadow=1;" edge="1" parent="yIEuN8YyVFJwC3LC824W-1" source="yIEuN8YyVFJwC3LC824W-5" target="yIEuN8YyVFJwC3LC824W-16">
          <mxGeometry relative="1" as="geometry" />
        </mxCell>
        <mxCell id="yIEuN8YyVFJwC3LC824W-20" value="Atualiza a proposta com os dados extraídos do RELATO (Retorno do Serasa) e submete a proposta." style="html=1;shape=mxgraph.flowchart.annotation_2;align=left;labelPosition=right;shadow=1;" vertex="1" parent="yIEuN8YyVFJwC3LC824W-1">
          <mxGeometry x="896" y="167.25" width="50" height="142.5" as="geometry" />
        </mxCell>
        <mxCell id="yIEuN8YyVFJwC3LC824W-21" value="" style="edgeStyle=elbowEdgeStyle;fontSize=12;html=1;endFill=0;startFill=0;endSize=6;startSize=6;dashed=1;dashPattern=1 4;endArrow=none;startArrow=none;rounded=0;shadow=1;" edge="1" parent="yIEuN8YyVFJwC3LC824W-1" source="yIEuN8YyVFJwC3LC824W-8" target="yIEuN8YyVFJwC3LC824W-20">
          <mxGeometry width="160" relative="1" as="geometry">
            <mxPoint x="799" y="237" as="sourcePoint" />
            <mxPoint x="850" y="454" as="targetPoint" />
          </mxGeometry>
        </mxCell>
        <mxCell id="yIEuN8YyVFJwC3LC824W-26" value="Análise de Crédito Varejista" style="swimlane;horizontal=0;whiteSpace=wrap;html=1;" vertex="1" parent="yIEuN8YyVFJwC3LC824W-1">
          <mxGeometry x="-24" width="1834" height="820" as="geometry" />
        </mxCell>
        <mxCell id="yIEuN8YyVFJwC3LC824W-27" value="" style="edgeStyle=orthogonalEdgeStyle;rounded=0;orthogonalLoop=1;jettySize=auto;html=1;" edge="1" parent="yIEuN8YyVFJwC3LC824W-26" source="yIEuN8YyVFJwC3LC824W-19" target="yIEuN8YyVFJwC3LC824W-8">
          <mxGeometry relative="1" as="geometry" />
        </mxCell>
        <mxCell id="yIEuN8YyVFJwC3LC824W-19" value="Analisa Retorno Serasa" style="points=[[0.25,0,0],[0.5,0,0],[0.75,0,0],[1,0.25,0],[1,0.5,0],[1,0.75,0],[0.75,1,0],[0.5,1,0],[0.25,1,0],[0,0.75,0],[0,0.5,0],[0,0.25,0]];shape=mxgraph.bpmn.task;whiteSpace=wrap;rectStyle=rounded;size=10;html=1;container=1;expand=0;collapsible=0;taskMarker=manual;shadow=1;" vertex="1" parent="yIEuN8YyVFJwC3LC824W-26">
          <mxGeometry x="647" y="350" width="175" height="79" as="geometry" />
        </mxCell>
        <mxCell id="yIEuN8YyVFJwC3LC824W-18" value="Serasa retorna o RELATO contendo o score e outros dados financeiros,&amp;nbsp;&lt;div&gt;do relato são selecionados os seguintes dados:&lt;div&gt;&lt;br&gt;&lt;/div&gt;&lt;div&gt;&lt;ol&gt;&lt;li&gt;Probabilidade de inadimplência&lt;/li&gt;&lt;li&gt;Pendências financeiras&lt;br&gt;&lt;br&gt;Obs: É anexado um print do Relato para fins de auditoria, porém não é obrigatório.&lt;/li&gt;&lt;/ol&gt;&lt;/div&gt;&lt;/div&gt;" style="html=1;shape=mxgraph.flowchart.annotation_2;align=left;labelPosition=right;shadow=1;" vertex="1" parent="yIEuN8YyVFJwC3LC824W-26">
          <mxGeometry x="822" y="343.25" width="50" height="133.5" as="geometry" />
        </mxCell>
        <mxCell id="yIEuN8YyVFJwC3LC824W-7" value="" style="group;shadow=1;rounded=1;" vertex="1" connectable="0" parent="yIEuN8YyVFJwC3LC824W-26">
          <mxGeometry x="646" y="197" width="199.3499999999999" height="89.67999999999995" as="geometry" />
        </mxCell>
        <mxCell id="yIEuN8YyVFJwC3LC824W-8" value="&lt;div&gt;Atualiza Proposta&lt;br&gt;&lt;/div&gt;" style="rounded=1;whiteSpace=wrap;html=1;shadow=1;glass=0;" vertex="1" parent="yIEuN8YyVFJwC3LC824W-7">
          <mxGeometry width="178" height="83" as="geometry" />
        </mxCell>
        <mxCell id="yIEuN8YyVFJwC3LC824W-9" style="edgeStyle=none;curved=1;rounded=0;orthogonalLoop=1;jettySize=auto;html=1;entryX=0;entryY=0.5;entryDx=0;entryDy=0;fontSize=12;startSize=8;endSize=8;shadow=1;" edge="1" parent="yIEuN8YyVFJwC3LC824W-7" source="yIEuN8YyVFJwC3LC824W-8" target="yIEuN8YyVFJwC3LC824W-8">
          <mxGeometry relative="1" as="geometry" />
        </mxCell>
        <mxCell id="yIEuN8YyVFJwC3LC824W-10" value="" style="verticalLabelPosition=bottom;aspect=fixed;html=1;shape=mxgraph.salesforce.learning;shadow=1;" vertex="1" parent="yIEuN8YyVFJwC3LC824W-7">
          <mxGeometry x="156" y="46.32999999999993" width="43.35" height="43.35" as="geometry" />
        </mxCell>
        <mxCell id="yIEuN8YyVFJwC3LC824W-11" value="" style="ellipse;whiteSpace=wrap;html=1;aspect=fixed;fillColor=#f8cecc;strokeColor=#b85450;shadow=1;" vertex="1" parent="yIEuN8YyVFJwC3LC824W-26">
          <mxGeometry x="720" y="105" width="30" height="30" as="geometry" />
        </mxCell>
        <mxCell id="yIEuN8YyVFJwC3LC824W-12" value="" style="edgeStyle=none;curved=1;rounded=0;orthogonalLoop=1;jettySize=auto;html=1;fontSize=12;startSize=8;endSize=8;shadow=1;entryX=0.5;entryY=1;entryDx=0;entryDy=0;" edge="1" parent="yIEuN8YyVFJwC3LC824W-26" source="yIEuN8YyVFJwC3LC824W-8" target="yIEuN8YyVFJwC3LC824W-11">
          <mxGeometry relative="1" as="geometry">
            <mxPoint x="735.8872212320857" y="141.99957613258948" as="targetPoint" />
          </mxGeometry>
        </mxCell>
        <mxCell id="yIEuN8YyVFJwC3LC824W-23" value="" style="edgeStyle=elbowEdgeStyle;fontSize=12;html=1;endFill=0;startFill=0;endSize=6;startSize=6;dashed=1;dashPattern=1 4;endArrow=openThin;startArrow=none;rounded=0;entryX=1;entryY=0.5;entryDx=0;entryDy=0;entryPerimeter=0;shadow=0;" edge="1" parent="1" target="yIEuN8YyVFJwC3LC824W-22" source="yIEuN8YyVFJwC3LC824W-16">
          <mxGeometry width="160" relative="1" as="geometry">
            <mxPoint x="864.9999999999995" y="2120" as="sourcePoint" />
            <mxPoint x="1148" y="2576.5" as="targetPoint" />
            <Array as="points">
              <mxPoint x="972" y="2445.5" />
            </Array>
          </mxGeometry>
        </mxCell>
        <mxCell id="yIEuN8YyVFJwC3LC824W-25" value="SERASA" style="swimlane;horizontal=0;whiteSpace=wrap;html=1;" vertex="1" parent="1">
          <mxGeometry x="-161" y="2420" width="1830" height="396" as="geometry" />
        </mxCell>
        <mxCell id="yIEuN8YyVFJwC3LC824W-24" value="CONSULTA RELATO" style="swimlane;startSize=20;horizontal=0;html=1;whiteSpace=wrap;shadow=0;" vertex="1" parent="yIEuN8YyVFJwC3LC824W-25">
          <mxGeometry x="20" width="1810" height="396" as="geometry" />
        </mxCell>
        <mxCell id="yIEuN8YyVFJwC3LC824W-22" value="Serasa Consulta WEB" style="points=[[0.25,0,0],[0.5,0,0],[0.75,0,0],[1,0.25,0],[1,0.5,0],[1,0.75,0],[0.75,1,0],[0.5,1,0],[0.25,1,0],[0,0.75,0],[0,0.5,0],[0,0.25,0]];shape=mxgraph.bpmn.task;whiteSpace=wrap;rectStyle=rounded;size=10;html=1;container=1;expand=0;collapsible=0;taskMarker=abstract;shadow=0;" vertex="1" parent="yIEuN8YyVFJwC3LC824W-24">
          <mxGeometry x="617" y="130.5" width="211" height="110" as="geometry" />
        </mxCell>
      </root>
    </mxGraphModel>
  </diagram>
</mxfile>
